<svg width="16" height="19" viewBox="0 0 16 19" fill="none" xmlns="http://www.w3.org/2000/svg">
<path d="M15.5638 13.8622C15.1508 14.7782 14.9518 15.1872 14.4198 15.9972C13.6778 17.1272 12.6298 18.5352 11.3328 18.5472C10.1808 18.5572 9.88482 17.7972 8.31982 17.8062C6.75582 17.8142 6.42982 18.5612 5.27682 18.5502C3.97982 18.5382 2.98682 17.2672 2.24382 16.1362C0.166817 12.9762 -0.0501832 9.26619 1.23082 7.29319C2.14082 5.8922 3.57782 5.0722 4.92782 5.0722C6.30282 5.0722 7.16782 5.8262 8.30382 5.8262C9.40682 5.8262 10.0788 5.0702 11.6688 5.0702C12.8688 5.0702 14.1428 5.72519 15.0498 6.8552C12.0778 8.48419 12.5598 12.7282 15.5638 13.8622ZM10.4628 3.8082C11.0398 3.0662 11.4788 2.0202 11.3198 0.950195C10.3758 1.0152 9.27282 1.6152 8.62782 2.3982C8.04382 3.1082 7.56082 4.1612 7.74782 5.18519C8.77782 5.2162 9.84382 4.60119 10.4628 3.8082Z" fill="#F2F2F2" fill-opacity="0.4"/>
</svg>
