<svg width="312" height="352" viewBox="0 0 312 352" fill="none" xmlns="http://www.w3.org/2000/svg">
<g clip-path="url(#clip0_64_182)">
<g filter="url(#filter0_f_64_182)">
<path fill-rule="evenodd" clip-rule="evenodd" d="M148.79 148.084L188.955 160.557C203.86 165.185 219.695 156.854 224.324 141.949C228.952 127.044 220.621 111.209 205.716 106.581L165.551 94.1084L148.79 148.084ZM262.098 153.679C273.204 117.912 253.213 79.9133 217.446 68.8066L139.507 44.6045L99.2863 174.128L177.225 198.331C212.992 209.437 250.991 189.446 262.098 153.679Z" fill="#3A3656"/>
<path fill-rule="evenodd" clip-rule="evenodd" d="M117.505 248.824L155.272 260.551C171.501 265.591 188.744 256.52 193.783 240.29C198.823 224.06 189.752 206.818 173.522 201.778L135.756 190.051L117.505 248.824ZM231.557 252.02C243.075 214.928 222.344 175.522 185.252 164.004L109.712 140.547L68.0013 274.868L143.542 298.325C180.633 309.843 220.039 289.112 231.557 252.02Z" fill="#3A3656"/>
<path d="M78.5542 240.852L68.1266 274.432L30.073 262.615L40.5006 229.035L78.5542 240.852Z" fill="#3A3656"/>
<path d="M139.496 44.6025L129.068 78.1828L91.0149 66.3662L101.443 32.7859L139.496 44.6025Z" fill="#3A3656"/>
<path d="M177.985 56.5518L144.688 46.2122L153.626 17.4291L186.923 27.7687L177.985 56.5518Z" fill="#3A3656"/>
<path d="M97.541 315.601L64.2441 305.261L73.1821 276.478L106.479 286.817L97.541 315.601Z" fill="#3A3656"/>
<path d="M227.278 71.8594L193.981 61.5198L202.919 32.7367L236.216 43.0763L227.278 71.8594Z" fill="#3A3656"/>
<path d="M146.839 330.908L113.542 320.569L122.48 291.786L155.777 302.125L146.839 330.908Z" fill="#3A3656"/>
</g>
</g>
<defs>
<filter id="filter0_f_64_182" x="12.0732" y="-0.570801" width="271.093" height="349.479" filterUnits="userSpaceOnUse" color-interpolation-filters="sRGB">
<feFlood flood-opacity="0" result="BackgroundImageFix"/>
<feBlend mode="normal" in="SourceGraphic" in2="BackgroundImageFix" result="shape"/>
<feGaussianBlur stdDeviation="9" result="effect1_foregroundBlur_64_182"/>
</filter>
<clipPath id="clip0_64_182">
<rect width="312" height="352" fill="white"/>
</clipPath>
</defs>
</svg>
