<svg width="24" height="24" viewBox="0 0 24 24" fill="none" xmlns="http://www.w3.org/2000/svg">
                            <path
                                d="M5.9315 21.6597L15.1307 16.4673L13.1555 14.2797L5.9315 21.6597ZM2.5715 2.5473C2.4647 2.7369 2.3999 2.9553 2.3999 3.1977V21.3477C2.3999 21.6837 2.5259 21.9717 2.7155 22.1997L11.8679 12.8517L2.5715 2.5473ZM20.9759 11.3781L17.7683 9.5673L14.5019 12.9045L16.8431 15.5001L20.9759 13.1685C21.1467 13.0837 21.2935 12.9573 21.4025 12.8008C21.5116 12.6443 21.5795 12.4629 21.5999 12.2733C21.5795 12.0837 21.5116 11.9023 21.4025 11.7458C21.2935 11.5893 21.1467 11.4629 20.9759 11.3781ZM16.0379 8.5905L4.9739 2.3457L13.2131 11.4777L16.0379 8.5905Z"
                                fill="#F2F2F2" fill-opacity="0.4" />
                        </svg>