<svg width="16" height="18" viewBox="0 0 16 18" fill="none" xmlns="http://www.w3.org/2000/svg">
<path d="M2.943 17.0501L10.609 12.7231L8.963 10.9001L2.943 17.0501ZM0.143 1.12308C0.0539999 1.28108 0 1.46308 0 1.66508V16.7901C0 17.0701 0.105 17.3101 0.263 17.5001L7.89 9.71008L0.143 1.12308ZM15.48 8.48208L12.807 6.97308L10.085 9.75408L12.036 11.9171L15.48 9.97408C15.6224 9.90342 15.7446 9.79804 15.8355 9.66766C15.9264 9.53728 15.983 9.3861 16 9.22808C15.983 9.07006 15.9264 8.91888 15.8355 8.7885C15.7446 8.65812 15.6224 8.55273 15.48 8.48208ZM11.365 6.15908L2.145 0.955078L9.011 8.56508L11.365 6.15908Z" fill="#F2F2F2" fill-opacity="0.4"/>
</svg>
